<svg xmlns="http://www.w3.org/2000/svg" viewBox="0 0 128 128">
  <!-- Dark background -->
  <rect width="128" height="128" rx="24" fill="#060d14"/>
  <!-- Grid lines -->
  <line x1="0" y1="32" x2="128" y2="32" stroke="rgba(0,255,136,0.06)" stroke-width="1"/>
  <line x1="0" y1="64" x2="128" y2="64" stroke="rgba(0,255,136,0.06)" stroke-width="1"/>
  <line x1="0" y1="96" x2="128" y2="96" stroke="rgba(0,255,136,0.06)" stroke-width="1"/>
  <line x1="32" y1="0" x2="32" y2="128" stroke="rgba(0,255,136,0.06)" stroke-width="1"/>
  <line x1="64" y1="0" x2="64" y2="128" stroke="rgba(0,255,136,0.06)" stroke-width="1"/>
  <line x1="96" y1="0" x2="96" y2="128" stroke="rgba(0,255,136,0.06)" stroke-width="1"/>
  <!-- Glow bg circle -->
  <circle cx="64" cy="64" r="42" fill="rgba(0,255,136,0.05)"/>
  <!-- Shield shape -->
  <path d="M64 18 L22 36 L22 66 C22 92 40 114 64 120 C88 114 106 92 106 66 L106 36 Z"
        fill="rgba(0,255,136,0.12)" stroke="#00ff88" stroke-width="2.5" stroke-linejoin="round"/>
  <!-- Checkmark -->
  <path d="M46 64 L58 76 L82 52"
        fill="none" stroke="#00ff88" stroke-width="5"
        stroke-linecap="round" stroke-linejoin="round"/>
  <!-- Corner accents -->
  <path d="M8 8 L8 20 M8 8 L20 8" stroke="rgba(0,255,136,0.4)" stroke-width="1.5" stroke-linecap="round"/>
  <path d="M120 8 L120 20 M120 8 L108 8" stroke="rgba(0,255,136,0.4)" stroke-width="1.5" stroke-linecap="round"/>
  <path d="M8 120 L8 108 M8 120 L20 120" stroke="rgba(0,255,136,0.4)" stroke-width="1.5" stroke-linecap="round"/>
  <path d="M120 120 L120 108 M120 120 L108 120" stroke="rgba(0,255,136,0.4)" stroke-width="1.5" stroke-linecap="round"/>
</svg>
